<?xml version="1.0" encoding="UTF-8"?>
<svg id="Layer_2" xmlns="http://www.w3.org/2000/svg" viewBox="0 0 119.99 48.07">
  <defs>
    <style>
      .cls-1 {
        fill: blue;
      }

      .cls-2 {
        fill: #ff0;
      }
    </style>
  </defs>
  <g id="Layer_1-2" data-name="Layer_1">
    <g>
      <path class="cls-1" d="M96.57,35.71c-.17-1.14-.28-2.3-.42-3.45-.12-.17-.03-.39-.15-.56-.4-1.9-1.13-3.65-2.41-5.14-.53-.61-1.1-1.2-1.89-1.5-.06-.19-.22-.18-.37-.18t0,0c-.12-.09-.26-.12-.4-.17-1-.32-2-.28-3,0-.16.12-.39.02-.53.19h0c-.1.1-.26.07-.37.17-.38.23-.76.46-1.12.72-.82.6-1.44,1.39-2.09,2.15-.12.1-.24.12-.36-.02-.41-.52-.88-.98-1.37-1.42-.16-.11-.29-.25-.46-.34h0c-.1-.1-.26-.08-.36-.19-.64-.28-1.25-.63-1.95-.74-.15-.15-.35-.18-.55-.16,0,0,0,0,0,0-1.28-.27-2.56-.33-3.85,0-.23-.03-.45,0-.63.17h0c-.32.05-.62.17-.9.34-.15.01-.31,0-.36.19,0,0,0,0,0,0-.28.12-.49.34-.71.54-.38.14-.23-.25-.36-.36-.39-.83-1.29-1.26-2.22-1.06-.8.18-1.22.78-1.19,1.79.08,2.5.2,5,.26,7.5.08,3.59.31,7.17.47,10.75.11.17.04.39.16.55.06.14.11.28.17.41.32.72,1,1.13,1.74,1.06.75-.08,1.53-.77,1.69-1.46.32-1.37.26-2.75.11-4.13-.16-1.45-.38-2.9-.27-4.36.08-1.05.23-2.1.34-3.15,0,0,0,0,0,0,.18-.25.19-.53.18-.82,0,0,0,0,0,0,.12-.22.19-.45.18-.7.16-.12.19-.28.17-.46.06-.12.12-.24.18-.36.09-.21.22-.41.27-.64,0-.03,0-.05,0-.07.02,0,.05-.01.07-.02.02-.19.21-.32.2-.52h0c.38-.49.74-1,1.33-1.26.12-.12.34-.03.45-.18.34-.17.7-.17,1.07-.16.28.14.59.18.9.18,0,0,0,0,0,0,.17.08.33.18.52.18.13.2.34.29.55.36h0c.18.18.36.35.54.53.06.22.19.39.36.54.03.34.2.62.35.91,0,0,0,0,0,0-.03.27.13.48.19.73.22.96.3,1.93.42,2.91.25,2.06.35,4.12.3,6.19-.13.7-.1,1.42-.13,2.13-.02.55-.05,1.1.12,1.63,0,.05.01.1.02.16.1.11.05.28.16.38.16.23.32.47.55.63.38.27.78.48,1.28.33,1.2-.36,1.68-.94,1.71-2.28.04-1.56.22-3.12.21-4.68,0-1.06.06-2.11.15-3.17.09-1.01.33-1.99.4-3,.12-.23.19-.47.17-.73h0c.04-.24.2-.45.18-.71.14-.15.19-.34.18-.54,0,0,0,0,0,0,.06-.14.11-.27.17-.41.35-.88.8-1.69,1.62-2.22.8-.52,2.08-.36,2.58.36.52.73.84,1.56,1,2.44.11.23.02.51.17.73.01.02.02.05.02.07.08.27.04.56.17.82v.16c.12.36.02.74.19,1.09.22,1.31.33,2.63.34,3.95.01,2.16,0,4.32.01,6.48,0,.99.46,1.74,1.33,2.22.76.42,1.61.23,2.08-.46,0,0,0,0,0,0,.12-.01.15-.1.17-.2,0-.03,0-.06,0-.1.01-.02.03-.04.04-.06.07-.12.07-.26.13-.39,0-.11,0-.23.01-.34.16-.35.18-.71.17-1.09h0c.36-2.91.29-5.81-.13-8.71Z"/>
      <path class="cls-2" d="M68.62,14.42c.04,1.1.08,2.2.23,3.29.05.83-.07,1.66.09,2.49h0s0,0,0,0l.02.47c.06.28.05.59.28.81.14.3.31.56.6.74h0c.1.23.28.3.52.27.05,0,.1,0,.15.01.19.04.39.03.58.06.1-.05.2-.11.29-.16,0,0,0,0,0,0,.73-.23,1.16-.76,1.34-1.48.19-.74.23-1.5.22-2.26-.02-1.21-.21-2.4-.33-3.6-.12-1.26-.1-2.52.08-3.78.14-1.05.29-2.09.55-3.12h0c.22-.33.43-.66.35-1.08h0c.2-.32.31-.67.45-1.01.44-.95,1.14-1.59,2.18-1.78,1.59-.3,3.08.52,3.73,2.01.37.84.51,1.74.72,2.61,0,.24,0,.48.09.7,0,0,0,0,0,0,.04.88.1,1.75.26,2.62,0,.44,0,.87.07,1.31,0,.04.01.08.02.12,0,1.34.07,2.69,0,4.03-.14.87-.22,1.74,0,2.61h0s0,0,0,0c.09.7.36,1.29,1.07,1.57.43.24.85.25,1.28,0h0,0c.92-.3,1.29-.99,1.35-1.89.07-1.05.13-2.11.17-3.16.07-1.56.03-3.12.18-4.68.14-1.49.33-2.98.77-4.42.26-.51.36-1.07.54-1.61h0c.14-.08.12-.24.18-.36.23-.1.3-.32.35-.54h0c.13-.17.31-.28.48-.4.16-.18.38-.28.56-.43.55-.47,1.15-.36,1.76-.18.44.13.63.51.89.83.53.79.72,1.71.97,2.6.08.65.2,1.28.35,1.92h0s0,0,0,0c0,.18-.02.37.09.54,0,.25-.03.5.09.73,0,0,0,0,0,0,0,.3.01.6.02.9.01.04.03.08.03.13-.01,1.35.11,2.7.08,4.05-.03,1.16,0,2.32,0,3.48,0,.47-.03.94.06,1.41h0c.08.23,0,.51.19.71.1.13.18.27.29.39.56.63,1.21,1.09,2.11.85.86-.23,1.08-.93,1.19-1.7.28-1.91.43-3.82.36-5.75-.06-1.59-.19-3.18-.46-4.75.01-.23,0-.46-.06-.68,0-.03-.02-.07-.03-.1,0-.15,0-.3-.02-.44-.15-1.39-.48-2.75-.89-4.08-.11-.45-.37-.85-.52-1.28-.18-.49-.44-.93-.72-1.35-.13-.2-.27-.39-.53-.43-.06-.08-.12-.15-.19-.23-.03-.11-.16-.13-.2-.23-.22-.53-.65-.81-1.18-.96-.51-.24-1-.53-1.58-.57-.18-.12-.38-.1-.58-.09-.36-.13-.74-.09-1.1-.03-2.27.37-3.81,1.77-5.03,3.6-.07.05-.13.12-.23.08h0c-.47-.93-1.25-1.58-2.12-2.09-1.41-.83-2.97-1.28-4.61-1.24-1.69.04-3.38.23-4.62,1.62-.02.02-.08,0-.12,0,.01-.11-.01-.21-.07-.31,0-.01-.01-.02-.02-.03,0,0,0,0,0,0-.12-.72-.91-1.29-1.8-1.29-.81,0-1.49.52-1.6,1.28-.12.8-.02,1.6.06,2.4,0,.81,0,1.61.09,2.41h0s0,0,0,0c0,.07-.02.15-.02.22.07,2.57.14,5.14.23,7.71Z"/>
      <path class="cls-1" d="M119.64,42.97c-.15-2.03-.31-4.07-.47-6.1-.11-1.44-.2-2.88-.35-4.32-.09-.96-.21-1.92-.62-2.82,0-.11-.01-.23-.02-.34-.02-.04-.05-.06-.08-.06,0,0,0-.01,0-.02-.03-.1,0-.22-.1-.29-.66-1.33-1.65-2.37-2.86-3.21-.07-.15-.25-.09-.35-.2-.06-.03-.12-.06-.18-.08,0,0,0,0,0,0,0-.02,0-.05-.02-.07-.05,0-.1-.01-.15-.02-.04-.03-.08-.06-.12-.09-.18-.08-.34-.2-.53-.26-.17-.04-.35-.07-.52-.12-.8-.24-1.6-.4-2.44-.42-.66-.02-1.3.09-1.95.18-.26-.01-.52-.03-.73.17,0,0,0,0,0,0-1.95.52-3.61,1.53-5.01,2.97-1.02,1.04-1.7,2.21-1.41,3.74.08.23.17.45.32.65.05.08.1.15.2.17,0,0,0,0,0,0,.06.06.12.12.18.18h.11s.03.02.04.03c.09.06.21.07.3.14.85.19,1.62.05,2.29-.53.37-.32.58-.74.84-1.14.7-1.04,1.61-1.8,2.86-2.1.22-.15.52.01.72-.19.54-.29,1.13-.11,1.69-.15,0,0,0,0,0,0,.18.06.37.12.55.17.05,0,.09,0,.14,0,.02.02.04.03.06.05.25.12.51.23.78.3,1.11.54,1.69,1.45,1.83,2.65.09.78-.19,1.05-.94.88-1.11-.25-2.23-.37-3.37-.3-.19.14-.46,0-.65.16-.2.08-.39.2-.62.18-.32.06-.61.22-.9.37-1.33.75-2.52,1.67-3.6,2.75-.15.23-.38.4-.52.64-.3.59-.6,1.19-.91,1.78-.14.36-.27.72-.34,1.1-.07.82-.08,1.65-.01,2.48.08.2.03.43.12.63.16.11.15.3.23.45.12.24.24.47.37.71.18.24.32.51.54.71.57.54,1.17,1.03,1.94,1.28.07.18.23.16.38.15h0s0,0,0,0c1.31.42,2.62.34,3.94,0,.2.01.39-.02.53-.18h0c.88-.29,1.66-.74,2.37-1.33.73-.61,1.35-1.32,2.1-1.89.34-.2.24.19.37.27.19.58.28,1.18.37,1.78.13.85.22,1.72,1.07,2.22.19.15.43.12.64.19.27,0,.54-.03.79-.16.15,0,.32.03.38-.18t0,0c.46-.09.66-.47.88-.81.14-.19.1-.43.17-.64.07-.75-.29-1.42-.34-2.15Z"/>
      <path class="cls-2" d="M102.41,8.25c.52.22,1.03.25,1.55,0,.1-.03.2-.05.29-.09.56-.23.87-.72,1.22-1.18.15-.16.23-.36.36-.54h0c.15-.12.24-.3.37-.44.39-.59.96-.92,1.59-1.17.13-.05.29-.02.38-.16l.02-.03h.03c.12-.04.26-.04.38-.09.04-.05.08-.08.12-.1.07-.01.14-.03.2-.05.08,0,.16,0,.25,0,.06,0,.12.04.18.01.55-.27,1.13-.13,1.7-.12h0c.19.26.5.04.72.17h0c.09.15.24.2.39.27.33.14.71.2.94.53.2.05.25.24.35.38.23.15.17.52.46.62h0c0,.15.07.27.17.37h0s.04.05.06.08c.04.09.02.19.03.28,0,.13-.03.26.1.35h0c.06.1.05.21.03.3-.03.3-.46.73-.66.63-.39-.19-.81-.12-1.21-.2-.22-.02-.44-.02-.66-.05-1.05-.14-2.08-.06-3.08.32-.68.26-1.3.65-1.95.98-.08.06-.2.04-.27.12-.13.12-.24.26-.4.35-.46.25-.91.52-1.21.97-.12.06-.24.12-.27.27-.02.03-.04.07-.06.1-.14.04-.26.09-.3.25-.03.03-.06.06-.09.09-.46.32-.78.74-.89,1.3,0,.04-.06.06-.09.09-.26.23-.37.54-.43.86-.07.45-.26.87-.29,1.33-.02.21-.04.41-.06.62-.14,1.78.31,3.36,1.66,4.6.7.64,1.5,1.11,2.46,1.24.17.11.35.12.54.09.57.14,1.13.11,1.7,0h0s0,0,0,0c.22.02.43.02.64-.09h0s0,0,0,0c.16.02.31,0,.44-.08.12,0,.23,0,.32-.09.21.04.35-.15.53-.19.15,0,.28-.05.38-.17,0,0,0,0,0,0,.32-.06.56-.28.86-.38.15-.08.29-.21.46-.24.25-.05.38-.18.43-.42.02-.02.05-.05.07-.07.36-.27.81-.44,1.01-.88h0c.17-.08.39-.11.47-.29.15-.33.44-.54.68-.79h0c.26,0,.09.31.27.37.18.64.32,1.29.38,1.95.06.13.02.26.03.39.11.88.44,1.56,1.31,1.77h0c.35.16.71.17,1.07.02l.03-.02h.04c.13-.04.27-.07.37-.16.42-.29.85-.57.92-1.14.17-.49.16-.98,0-1.47h0c-.14-.64-.2-1.29-.25-1.94-.06-.78-.14-1.57-.21-2.35,0-.34.03-.69-.09-1.02h0s0,0,0,0c-.11-1.51-.2-3.02-.32-4.53-.07-.9-.09-1.81-.3-2.7.02-.17,0-.32-.09-.47,0,0,0,0,0,0-.36-2.18-1.49-3.86-3.3-5.11-.1-.07-.28-.04-.29-.22-.16-.28-.4-.39-.71-.4,0,0-.01,0-.02,0,0-.01,0-.02,0-.04-.07,0-.13,0-.17-.07-.04,0-.07-.01-.11-.02-.05-.04-.09-.08-.14-.12-.56-.19-1.12-.39-1.72-.42-.19,0-.38-.01-.56-.02,0,0,0,0,0,0h0c-.65-.15-1.31-.12-1.96,0,0,0,0,0,0,0-.16.01-.32.02-.48.04-.83.13-1.62.42-2.42.7-.27.07-.51.2-.74.35-.19.14-.38.3-.62.37-.2.09-.37.22-.54.34-.76.64-1.6,1.2-2.16,2.06-.27.22-.43.5-.53.82h0c-.51.83-.58,1.7-.2,2.6.17.4.45.69.89.8Z"/>
      <path class="cls-2" d="M45.81,8.25s0,0,0,0c.5.23,1,.24,1.5,0h0s0,0,0,0c.16.01.28-.09.41-.15.62-.3.94-.88,1.27-1.43,1.29-2.13,4.58-3.09,6.69-2.02,1.16.58,1.81,1.51,1.98,2.76.09.69-.11.89-.78.92-.02-.01-.04-.02-.06-.03-.16-.06-.32-.09-.49-.06-.68-.15-1.36-.23-2.05-.26-.33-.02-.68-.07-1,.09-.15-.03-.29,0-.42.07-.01,0-.02.01-.03.02,0,0,0,0,0,0-.13-.02-.25,0-.35.09-.34.02-.63.17-.9.35,0,0,0,0,0,0,0,0,0,0,0,0-.23.01-.41.16-.6.26-1.11.56-2.03,1.37-2.97,2.16-.28.19-.51.43-.71.71-.06.09-.13.19-.19.28-.28.24-.32.62-.51.91-.31.74-.69,1.47-.73,2.29-.17.7-.17,1.4,0,2.1h0c.29,1.83,1.3,3.09,2.98,3.84.12.11.27.16.43.18,0,0,0,0,0,0,0,0,0,0,0,0,.19.11.4.17.62.17.97.27,1.93.22,2.9,0,0,0,0,0,0,0,1.32-.22,2.5-.76,3.48-1.69.11-.07.23-.13.34-.2,0-.01,0-.03,0-.04.02,0,.03,0,.05,0,.45-.33.8-.76,1.2-1.15.18-.17.36-.34.54-.5.31-.06.15.27.3.35.05.13.1.26.15.39,0,.15,0,.29.08.42,0,.01.01.02.02.03,0,.16.02.31.08.46,0,.15,0,.31.07.45,0,.01.01.03.02.04,0,0,0,0,0,0,.05.34.09.68.16,1.01.16.75.64,1.19,1.38,1.34,1.25.27,2.36-.73,2.32-2.09-.02-.7-.3-1.36-.36-2.05.01-.37,0-.74-.09-1.1,0,0,0,0,0,0,.03-.64-.06-1.27-.11-1.91-.1-1.27-.23-2.54-.34-3.81,0-.39.02-.78-.08-1.15.01-.85-.1-1.69-.19-2.54-.27-2.58-1.27-4.74-3.47-6.25-.99-.68-2.09-1.05-3.24-1.31-.29-.04-.57-.16-.86-.14-.88.07-1.76-.1-2.64.12-.35.09-.69.14-.96.39-.15.07-.33.04-.45.17-.12.06-.24.12-.36.17-1.67.76-3.18,1.75-4.3,3.25-.66.88-1.05,1.84-.74,2.96.15.54.43,1.02,1.05,1.15ZM53.79,8.34c.08,0,.16,0,.24,0-.05.01-.1.02-.14.03-.03,0-.07-.02-.1-.03ZM53.96,8.39c.19-.02.38-.02.57-.01-.19.02-.38.04-.57.01Z"/>
      <path class="cls-1" d="M48.95,37.07c.71-.05,1.43-.16,2.14-.16,1.76,0,3.51-.17,5.27-.05,1.03.07,2.05-.09,3.08-.16.23-.12.51,0,.74-.16.21-.07.43-.13.63-.21.78-.3,1.56-.61,2.01-1.38.68-1.2.77-2.47.4-3.78.02-.18,0-.35-.17-.47,0,0,0,0,0,0,0-.17-.07-.31-.14-.46-.63-1.33-1.6-2.37-2.74-3.28-.08-.15-.24-.18-.37-.27-.8-.49-1.64-.9-2.49-1.28-.23-.08-.45-.2-.69-.25-.01,0-.02,0-.03,0,0-.03-.01-.05-.02-.08-.05,0-.11-.02-.16-.03-.03,0-.07,0-.1.01-.04-.02-.08-.05-.12-.07-.1-.03-.21-.05-.31-.03,0-.02,0-.04-.01-.06-.06,0-.11-.02-.17-.03-.09,0-.18,0-.28,0-.11-.04-.23-.08-.35-.09-.16,0-.33-.02-.49-.03-.71-.02-1.42-.06-2.12.12-.53.21-1.12.22-1.62.51,0,0,0,0,0,0h0c-.11.01-.22.02-.33.04-.04.02-.06.05-.06.08,0,0-.01,0-.02,0-.1.03-.22,0-.29.1-.04.09-.12.12-.2.16-1.46.77-2.66,1.84-3.57,3.22-.24.23-.42.5-.52.82,0,0,0,0,0,0,0,0,0,0,0,0-1.15,2.08-1.56,4.31-1.47,6.67.03.79.17,1.56.33,2.34.15.69.42,1.32.6,2,.1.1.06.27.18.37.12.24.24.48.37.71.03.23.16.41.34.55,0,0,0,0,0,0,.15.29.33.55.54.8,0,0,0,0,0,0,.07.14.13.28.2.42.03,0,.05,0,.08.01,0,.02,0,.03,0,.05.08.11.16.22.26.32.94,1.01,1.95,1.92,3.22,2.51.19.1.4.16.59.25.04.01.08.01.13.01.03.03.06.06.09.08.09,0,.18,0,.27,0h0c1.18.27,2.35.43,3.57.24.72-.11,1.41-.33,2.13-.43.11-.08.27-.07.38-.16.86-.29,1.67-.71,2.49-1.09.21-.07.39-.2.56-.34.49-.28.96-.58,1.42-.92.8-.59,1.01-1.86.44-2.68-.61-.89-1.74-1.15-2.63-.61-.58.36-1.15.75-1.74,1.08-.74.41-1.49.8-2.33.98-.22.15-.51.02-.72.18-.22.04-.44.08-.66.11-.76.1-1.51.06-2.22-.28-.21-.14-.45-.21-.67-.32-.22-.14-.46-.26-.68-.41-.83-.67-1.44-1.52-1.88-2.49-.08-.21-.09-.45-.28-.61-.03-.02-.05-.04-.06-.06,0-.02,0-.05,0-.07,0-.05-.01-.1-.02-.16-.05-.05-.01-.17-.08-.2,0-.01,0-.03,0-.04-.01-.09-.03-.17-.09-.23-.08-.31-.12-.62-.02-.93.07-.22.18-.4.45-.42Z"/>
      <path class="cls-1" d="M39.75,29.02c-.9-1.58-2.27-2.58-3.93-3.23-.14-.1-.31-.1-.45-.17-.98-.31-1.96-.55-3-.53-.72.02-1.4.23-2.09.35-.31.09-.62.18-.9.37-.18.12-.36.25-.55.37-1.26.79-2.22,1.85-2.87,3.19-.2.05-.18.21-.18.36h0c-.52,1.14-.64,2.34-.53,3.57.1.23-.01.52.19.72.05.07.11.14.15.22.34.81.91,1.43,1.61,1.95.09.2.25.3.46.34,0,0,0,0,0,0,0,0,0,0,0,0,.11.03.22.06.27.18.27.19.59.26.89.37.31.06.61.14.92.17,1.2.14,2.4.24,3.6.4,1.39.18,2.09.98,1.91,2.18-.05.34-.23.67-.35,1-.23.11-.28.34-.36.54,0,0,0,0,0,0-.57.64-1.19,1.22-1.97,1.61-.2-.01-.38.04-.53.19h0s0,0,0,0c-.42.05-.84.01-1.25,0-.01,0-.03-.01-.04-.02-.11-.05-.21-.11-.32-.16-.08-.07-.17-.09-.26-.07-.11-.1-.24-.15-.38-.2-.86-.54-1.46-1.33-2.1-2.09-.7-.84-1.48-.99-2.46-.52-.19.16-.4.32-.54.54h0c-.12.09-.11.25-.17.37-.13,1.21.34,2.24,1.02,3.18.94,1.3,2.31,1.94,3.81,2.36.23.12.5.07.73.16.63.03,1.27.07,1.9.02.71-.06,1.41-.14,2.03-.53.18,0,.35-.01.45-.19,0,0,0,0,0,0,1.09-.51,2-1.24,2.79-2.14.61-.7,1.05-1.5,1.41-2.34.11-.2.1-.43.17-.64.02-.21.07-.41.07-.62.04-2.24-.44-4.24-2.48-5.55-.25-.16-.52-.3-.82-.35-1.84-.49-3.78-.2-5.61-.74,0,0,0,0,0,0h0c-.09-.06-.19-.11-.28-.17-.04-.04-.09-.05-.14-.03-.07-.05-.15-.1-.22-.15-.52-.48-.42-1.08-.28-1.66.28-1.16,1.03-1.93,2.07-2.46.15,0,.31.02.39-.16,0,0,0,0,0,0,.94-.12,1.85-.06,2.65.53.08.08.19.11.28.16.8.52,1.42,1.22,2.01,1.96.22.27.42.57.74.74.05.2.21.18.36.19,0,0,0,0,0,0,.37.22.75.19,1.15.06.61-.2,1-.65,1.35-1.15.14-.22.12-.48.18-.73-.05-.49-.24-.93-.36-1.4-.09-.11-.06-.27-.17-.37Z"/>
      <path class="cls-2" d="M39.6,3.79c-.97-1.32-2.33-2.1-3.86-2.59-.03,0-.06-.01-.09-.02-.07-.08-.16-.09-.26-.09-.55-.24-1.12-.35-1.71-.37,0,0,0,0,0,0,0,0,0,0,0,0-.16-.02-.32-.05-.48-.06-.79-.04-1.56.13-2.34.26-.9.2-1.71.58-2.35,1.27-.75.69-1.44,1.43-1.98,2.3-.13.23-.38.41-.43.66-.11.51-.32.98-.46,1.48-.02.2-.08.38-.15.56-.1.55-.05,1.08.16,1.59h0c.03.53.22,1.01.52,1.44.36.43.63.93,1.07,1.29.16.48.66.46.99.68h0c.36.39.83.53,1.35.53h0c.33.28.74.07,1.1.18.05,0,.1,0,.15.01.17.05.31.18.5.17.86-.06,1.71.12,2.56.18,1.48.15,2.25,1.4,1.6,2.61-.1.1-.13.24-.17.37-.37.55-.78,1.07-1.25,1.54-1.2,1.18-2.74,1.3-4.09.34-.54-.39-.97-.87-1.41-1.35-.31-.33-.48-.78-.92-.98-.57-.41-1.18-.5-1.82-.18,0,0,0,0,0,0-.73.4-1.04,1-.89,1.8.08.42.23.83.34,1.24.03.36.17.66.46.88h0c.16.42.52.68.81.98.27.52.74.77,1.25.97.08.01.17.03.25.04.14.06.19.22.33.27.04,0,.08,0,.13,0,.52.18,1.05.36,1.6.43.14,0,.28,0,.43.01,0,0,0,0,0,0,.76.17,1.52.18,2.28,0,0,0,0,0,0,0,.4-.01.79-.07,1.15-.27.08,0,.15-.01.2-.08.69-.15,1.26-.55,1.84-.92.19-.11.39-.19.54-.36.08-.04.05-.18.17-.18.36-.24.64-.56.91-.88.33-.46.68-.9.95-1.4.75-1.37,1.02-2.81.57-4.34,0,0,0-.02,0-.03,0-.02-.01-.04-.02-.05-.04-.5-.32-.93-.45-1.41-.36-.78-.83-1.47-1.61-1.89-.03-.05-.08-.07-.13-.09-.07-.01-.14-.02-.18-.08-.05-.08-.16-.05-.22-.11-1.32-.49-2.7-.54-4.09-.59-.73-.03-1.45-.15-2.15-.38-.63-.2-.92-.54-.93-1.2-.03-1.83,1.73-3.68,3.71-3.41,1.61.22,2.69,1.3,3.64,2.52.04.08.07.17.13.23.34.35.53.88,1.12.94h0c.49.27.96.14,1.41-.09.03-.03.06-.06.1-.08.99-.62,1.28-1.39,1-2.5-.17-.66-.5-1.24-.89-1.77ZM39.1,13.73s0,0,0,.01c0-.01,0-.01,0-.01Z"/>
      <path class="cls-2" d="M22.3,8.13c0-.7.01-1.4-.26-2.07h0s0,0,0,0c-.13-.72-.49-1.34-.89-1.93-.03-.17-.14-.28-.27-.37,0,0,0,0,0,0-.03-.05-.07-.1-.1-.15-.18-.3-.43-.53-.72-.72h0c-.06-.11-.17-.14-.27-.19-.03-.02-.05-.04-.08-.07-.14-.19-.34-.28-.54-.37-.1-.1-.21-.16-.35-.18-.02-.07-.1-.05-.17-.05-.8-.36-1.64-.59-2.51-.59-3.26-.03-6.52-.01-9.77-.01-.06,0-.12.02-.17.03-.22-.03-.43-.03-.64.07,0,0,0,0,0,0-.19-.03-.37-.02-.53.09-.13-.02-.26-.01-.36.09-.54.1-1.02.32-1.49.6-1.09.65-1.95,1.52-2.45,2.71h0s0,0,0,0c-.32.48-.47,1.02-.53,1.59H.17c-.05.04-.06.16-.17.11v36c.17-.02.1.15.17.21,0,0,0,0,0,0,.39,2.68,2.95,5.03,5.77,5.1,2.86.07,5.73.04,8.59.02.04,0,.08,0,.12,0,.3,0,.59,0,.89,0,.04,0,.08,0,.12,0,.22,0,.43,0,.65,0,.98,0,1.87-.34,2.72-.79.13-.07.32-.1.34-.31,0,0,0,0,0,0,.05,0,.09-.01.14-.02.18,0,.28-.12.37-.26,0,0,0,0,0,0,0,0,0,0,0,0,.05-.04.1-.07.16-.11h0c.11-.09.23-.17.34-.26,0-.01,0-.03,0-.04,0,0,0,0,0,0,.14-.11.26-.24.36-.39h0c.27-.23.46-.52.61-.83.04-.1.07-.2.11-.3.62-.98.8-2.06.8-3.2,0-4.52,0-9.04,0-13.56,0-6.61,0-13.22,0-19.83ZM1.29,44.11s0,0,0,0c0,0,0,0,0,0,0,0,0,0,0,0ZM15.65,47.76s-.04-.01-.06-.02c.03,0,.05.01.08.02,0,0-.01,0-.02,0ZM15.76,47.83s-.04-.03-.07-.05h0s.02,0,.03.01c.01.01.02.02.03.03,0,0,0,0,0,0ZM21.3,42.19s-.02.07-.02.1c-.01.03-.03.07-.05.1-.05.16-.05.32-.06.49l-.03.24c-.02.09-.06.18-.12.26,0,.04-.01.08-.01.12-.02,0-.04.02-.04.04-.02.07-.02.15-.05.21-1.01,2.14-2.67,3.31-5.07,3.32-2.75.02-5.49-.01-8.24,0-1.24,0-2.48,0-3.64-.53h-.01c-.47-.36-.95-.71-1.42-1.06.09-.19-.01-.34-.12-.47-.63-.75-.99-1.61-1.15-2.56-.03-.17-.04-.36-.26-.39,0,0,0-.01,0-.02,0-.03,0-.07,0-.1.03-.2.03-.4.03-.6,0-11.36,0-22.72,0-34.07.07-.48.18-.95.3-1.41.03-.04.07-.07.12-.1.17-.14.27-.33.28-.56-.02-.04-.03-.07-.05-.1.79-1.27,1.89-2.15,3.35-2.57,0-.02.01-.03.02-.04.01,0,.03,0,.04,0-.02.02-.04.03-.06.05.36-.06.72-.1,1.08-.12.05.01.09.02.14.03.09,0,.17-.01.25-.05.47-.01.95,0,1.42,0,2.23,0,4.46,0,6.7,0,.85,0,1.71-.02,2.54.13.2.06.39.13.56.26.18.14.39.23.58.34,1.03.59,1.87,1.38,2.36,2.48.22.25.23.61.46.86.15.21.02.45.08.66,0,.04.02.09.05.13.02.04.04.09.06.14,0,0,0,.02,0,.02h0c0,.09,0,.17,0,.25,0,9.76,0,19.53,0,29.29,0,1.51,0,3.03,0,4.54,0,.22.01.45-.01.67Z"/>
      <path class="cls-2" d="M8.42,25.06c.52.48,1.06.93,1.68,1.28.09.12.21.19.37.19,0,0,0,0,0,0,.27.11.51.2.52.59.01.31.46.41.71.18.35-.31.6-.7.77-1.14.08-.21,0-.39-.17-.51-.18-.13-.4-.14-.54.02-.32.39-.74.2-.97.05-.93-.62-1.86-1.27-2.55-2.17-.04-.21-.19-.34-.36-.44-.51-.63-.86-1.35-1.23-2.07-.03-.17-.08-.32-.19-.45-.12-.47-.26-.94-.36-1.42-.28-1.26-.2-2.51,0-3.77h0s0,0,0,0c.1-.17.14-.35.17-.54.12-.16.18-.34.2-.53,0,0,0,0,0,0,.54-1.22,1.34-2.23,2.33-3.12.15-.05.26-.15.35-.29,0,0,0,0,0,0,.06-.04.13-.08.19-.12,1.44-1.02,3.03-1.57,4.8-1.55.23,0,.48-.05.49.33,0,.23.21.37.44.35.25-.02.39-.19.43-.44.07-.53.14-1.06.2-1.59.04-.3-.1-.51-.4-.53-.37-.03-.5.23-.5.55,0,.37-.16.46-.52.44-.95-.04-1.9.03-2.8.39-.49.09-.93.29-1.35.54-.46.2-.91.43-1.31.74-.12.04-.21.12-.27.22,0,.01,0,.02-.01.03-.03,0-.05.01-.08.02-.03.04-.07.09-.1.13-.04.02-.08.03-.12.05-.11.08-.22.17-.31.27-.09.1-.16.21-.26.3-.88.87-1.57,1.85-2.02,3-.72,1.84-.86,3.72-.33,5.64,0,.32.1.62.26.9.46,1.6,1.37,2.93,2.52,4.11.08.15.2.27.36.34Z"/>
      <path class="cls-1" d="M18.26,32.96c0-.09,0-.18,0-.27-.05-.04-.02-.16-.09-.19,0,0,0-.02,0-.02-.03-.08-.02-.17-.07-.24h0c-.13-.09-.06-.27-.15-.38,0,0,0,0,0-.01.03-.05.02-.09-.02-.14-.08-.21-.11-.45-.35-.56,0,0,0,0,0,0-.03-.08-.06-.16-.09-.24,0-.25-.16-.43-.28-.63-.18-.29-.39-.56-.64-.79-.02-.19-.06-.36-.27-.44h0s0,0,0,0c-.58-.63-1.18-1.23-1.94-1.64,0,0,0,0,0,0-.05-.19-.25-.17-.37-.26h0s0,0,0,0c-.03-.19.1-.33.14-.49.06-.24.19-.51-.14-.67h0s0,0,0,0c-.33-.16-.57-.06-.72.27-.19.42-.39.83-.61,1.23-.16.3-.15.57.08.82.18.13.36.13.53-.02.11-.23.22-.36.5-.19.79.48,1.47,1.07,2.03,1.81.21.32.35.69.69.92,0,0,0,0,0,0,.12.23.24.47.36.7.05.28.1.56.35.74h0c0,.25.04.48.18.68-.02.52.18,1.01.2,1.53.03.93-.04,1.86-.2,2.77,0,0,0,0,0,0-.1.16-.19.33-.17.52-.17.28-.35.56-.38.9,0,0,0,0,0,0-.84,1.46-1.96,2.67-3.38,3.59-.23.05-.44.13-.55.35,0,0,0,0,0,0h0c-.18-.01-.33.05-.45.18,0,0,0,0,0,0-.05,0-.1.01-.15.02-.02.03-.04.06-.06.09-.01,0-.03,0-.04,0-.03,0-.05.02-.07.04-.1-.04-.19-.02-.28.05-.2.2-.52.14-.72.33,0,.02-.02.03-.04.04.01-.01.02-.03.04-.04-.54.12-1.08.24-1.62.37,0,0,0,0,0,0-.55,0-1.1-.01-1.64.03-.56.04-.9-.18-1.04-.72-.2-.16-.41-.13-.62-.02-.35.53-.29,1.11-.13,1.67.1.34.5.42.75.15.15-.16.27-.23.49-.2,1.1.18,2.19.06,3.27-.2,0,0,0,0,0,0h0c.22.03.42-.04.61-.14.01,0,.03-.01.04-.02.22,0,.41-.12.61-.19,0-.01.02-.02.03-.03,0,0-.02.02-.03.03.15,0,.31.02.37-.17,0,0,0,0,0,0h0s0,0,0,0h0s0,0,0,0c.29-.02.55-.11.74-.35,0,0,0,0,0,0,.61-.16,1.09-.54,1.58-.91.25-.01.37-.22.53-.36h0,0c.87-.7,1.59-1.53,2.16-2.49.28-.24.38-.59.53-.91.11-.16.22-.32.2-.53,0,0,0,0,0,0,.73-1.75.76-3.55.34-5.37Z"/>
      <path class="cls-1" d="M9.87,32.71c.22-.2.48-.09.73-.09.23,0,.41-.07.47-.31.07-.27-.06-.48-.28-.54-.44-.11-.9-.24-1.31.1-.31.1-.51.3-.54.63,0,0,0,0,0,0h0c-.16.44-.2.85.18,1.19,0,0,0,0,0,0,.16.35.46.45.77.31.28-.13.29-.42.13-.68-.14-.19-.23-.38-.15-.62,0,0,0,0,0,0Z"/>
      <path class="cls-2" d="M13.6,21.08c-.07.02-.15.02-.22.04-.26.05-.39.22-.38.47.02.24.18.36.41.4.51.09,1.09-.25,1.28-.76.2-.53,0-1.05-.53-1.35-.03-.06-.07-.09-.14-.09-.25-.13-.51-.23-.76,0-.06.01-.1.05-.1.12-.12.13-.13.26,0,.39v.02s.02,0,.02,0c0,0,0,0,0,0h0c.06.22.25.22.42.27.13.03.22.11.22.25,0,.14-.1.21-.23.24Z"/>
      <path class="cls-1" d="M8.76,37.96c.14-.23.15-.46,0-.7-.52-.35-1.28-.28-1.66.14-.42.48-.4,1.04.05,1.55.04.2.2.24.35.29,0,0,0,0,0,0,.13.14.25.05.36-.03.4-.17.46-.39.17-.71-.14-.15-.31-.28-.23-.52.14,0,.28,0,.43-.01,0,0,0,0,0,0,0,0,0,0,0,0,.18.11.34.02.51-.02Z"/>
      <path class="cls-2" d="M15.22,14.15s0,0,0,0c-.13-.15-.31-.19-.48-.21-.43-.05-.62.25-.44.67.05.2.24.19.38.26.18.09.34.21.33.43-.01.23-.19.32-.4.34-.09,0-.18.03-.23.11,0,0,0,0,0,0,0,0,0,0,0,0-.02.02-.04.04-.07.07-.14.18-.19.36,0,.54.14.25.38.22.59.18.85-.17,1.34-1.16.86-1.85-.09-.27-.27-.45-.54-.54Z"/>
    </g>
  </g>
</svg>